<?xml version="1.0" encoding="utf-8"?>
<!-- Generator: Adobe Illustrator 22.1.0, SVG Export Plug-In . SVG Version: 6.00 Build 0)  -->
<svg version="1.1" id="Layer_1" xmlns="http://www.w3.org/2000/svg" xmlns:xlink="http://www.w3.org/1999/xlink" x="0px" y="0px"
	 viewBox="0 0 891.2 340.5" style="enable-background:new 0 0 891.2 340.5;" xml:space="preserve">
<style type="text/css">
	.st0{fill:#5D3EF7;}
	.st1{fill:#8E8E8E;}
	.st2{fill:#4130BF;}
	.st3{fill:#1B1F61;}
</style>
<g>
	<g>
		<g>
			<path class="st0" d="M233.1,197.8c-10.6,24.3-34.8,41.3-62.9,41.3c-37.9,0-68.6-30.8-68.6-68.9s30.7-68.9,68.6-68.9
				s68.6,30.8,68.6,68.9c0,0.2,0,0.5,0,0.7c-0.2,0-0.5,0-0.7,0c-34,0-62.2-24.8-67.7-57.3l-16.1,2.7c6.8,40.3,41.7,71,83.8,71
				c5.3,0,10.6-0.5,15.7-1.4c0.9-5.1,1.4-10.3,1.4-15.7c0-47.1-38-85.3-85-85.3c-46.9,0-85,38.2-85,85.3c0,47.1,38,85.3,85,85.3
				c34.9,0,64.8-21.1,77.9-51.2L233.1,197.8"/>
			<path class="st1" d="M154.3,116.6C154.3,116.6,154.3,116.6,154.3,116.6C154.3,116.6,154.3,116.6,154.3,116.6 M154.3,116.5
				L154.3,116.5L154.3,116.5 M170.4,113.7l-16.1,2.7l0,0L170.4,113.7c1.8,10.9,6.2,21,12.6,29.5l0,0
				C176.7,134.7,172.3,124.6,170.4,113.7"/>
			<path class="st2" d="M170.4,113.7l-16.1,2.7c0,0,0,0,0,0.1l0,0c0,0,0,0.1,0,0.1c0,0,0,0,0,0c1.8,10.7,5.6,20.7,11,29.6l17.7-3
				C176.7,134.7,172.3,124.6,170.4,113.7"/>
		</g>
	</g>
	<g>
		<g>
			<path class="st3" d="M461.6,136.1h19.6v84.4h-19.6v-8.8c-8.6,10-19.2,11.4-25.3,11.4c-26.1,0-40.9-21.6-40.9-44.9
				c0-27.5,18.8-44.3,41.1-44.3c6.2,0,17,1.6,25.1,12V136.1z M415.5,178.6c0,14.6,9.2,26.9,23.5,26.9c12.4,0,23.9-9,23.9-26.7
				c0-18.4-11.4-27.3-23.9-27.3C424.7,151.5,415.5,163.5,415.5,178.6z"/>
			<path class="st3" d="M521.7,74.3v146.1h-19.6V74.3H521.7z"/>
			<path class="st3" d="M562.2,74.3v146.1h-19.6V74.3H562.2z"/>
			<path class="st3" d="M676.3,105.2h19.6v30.9h15v18h-15v66.4h-19.6V105.2z"/>
			<path class="st3" d="M806,178.4c0,25.9-19.6,44.7-45.1,44.7s-45.1-18.8-45.1-44.7c0-26.1,19.6-44.5,45.1-44.5
				S806,152.3,806,178.4z M785.9,178.6c0-19.2-12.6-27.1-25.1-27.1s-25.1,7.8-25.1,27.1c0,16.2,9.6,26.9,25.1,26.9
				C776.3,205.4,785.9,194.8,785.9,178.6z"/>
			<g>
				<path class="st3" d="M359.4,136.1v9.2c-7.2-8.6-16.6-11.4-25.1-11.4c-10.2,0-20.2,3-28.7,11.6c-6.6,6.6-12.4,17.2-12.4,32.7
					c0,14,5,25.5,12.6,33.5c8,8.4,17,11.4,27.9,11.4c5.6,0,16.6-0.6,25.7-12v11c0,6.2,0,15-6.4,21.2c-2.4,2.4-7.2,5.6-15.4,5.6
					c-8,0-12.8-3.2-15.2-5.8c-2-2.1-3.6-5.1-4.8-8.2l-17.5,6.2c2.3,5.9,5.6,11.1,9.5,15c8,8,17.8,10.4,27.7,10.4
					c13.8,0,22.7-4.6,28.1-9c11.6-9.8,13.8-24.1,13.8-43.9v-77.6H359.4z M353.1,198.6c-4.8,5-10.2,6.8-16.4,6.8
					c-6,0-11.4-2.4-15-5.6c-5.2-4.6-8.4-12.8-8.4-21.2c0-9,3.6-16.8,8.6-21.4c4.4-4.2,9.4-5.6,14.8-5.6c5.6,0,11,1.2,15.8,6
					c5,4.8,8,11.8,8,21.2C360.6,185.2,359,192.4,353.1,198.6z"/>
			</g>
			<g>
				<path class="st3" d="M659.3,180.6c0-8.8-1-24.5-11.8-35.7c-5-5.2-13.6-11-27.1-11c-12,0-21.2,4.4-28.3,11.4
					c-8.8,9-13.4,21.6-13.4,34.7c0,12.6,4.4,24.3,12.4,32.3c8,8,17.2,10.8,28.5,10.8c9,0,18-2,24.9-6.4c4.9-3.1,9.7-8.1,13.3-13.8
					l-17.2-8.2c-1.6,2.3-3.7,4.7-6.1,6.5c-4,3-8,4.2-13.4,4.2c-4.8,0-10.4-0.8-15-5.4c-4.2-4.2-6.8-11-7.2-17h60.5V180.6z
					 M600.1,166.9c1-4.2,3.2-8.2,6-10.8c2.6-2.6,7-5.4,13.8-5.4c6.4,0,10.6,2.4,13.2,4.8c3,2.8,5.2,6.8,6,11.4H600.1z"/>
			</g>
		</g>
	</g>
</g>
</svg>
